<svg xmlns="http://www.w3.org/2000/svg" width="99.676" height="127.9" viewBox="0 0 99.676 127.9">
  <g id="Group_1707" data-name="Group 1707" transform="translate(-5522.861 -2609.173)">
    <g id="Group_1706" data-name="Group 1706">
      <g id="Group_1704" data-name="Group 1704" transform="translate(5268.5 2443.573)">
        <path id="Union_5" data-name="Union 5" d="M1214.426,398.443a3.581,3.581,0,0,1-3.581-3.581V384.369a3.581,3.581,0,0,1,3.581-3.581h16.691a7.847,7.847,0,1,1,15.694,0h16.037a3.581,3.581,0,0,1,3.581,3.581v10.492a3.581,3.581,0,0,1-3.581,3.581Z" transform="translate(-941.713 -207.341)" fill="#818181"/>
        <path id="Subtraction_2" data-name="Subtraction 2" d="M1245.512,530.122h-68.44a5.67,5.67,0,0,1-5.67-5.67h0V424.623a5.67,5.67,0,0,1,5.67-5.67h68.44a5.67,5.67,0,0,1,5.67,5.67v99.829a5.67,5.67,0,0,1-5.67,5.67Z" transform="translate(-914.041 -239.622)" fill="none" stroke="#818181" stroke-width="6"/>
        <path id="Subtraction_2-2" data-name="Subtraction 2" d="M1186.627,484.346a1.494,1.494,0,0,0-1.492,1.492v2.9a1.494,1.494,0,0,0,1.492,1.492h27.75a1.494,1.494,0,0,0,1.492-1.492v-2.9a1.494,1.494,0,0,0-1.492-1.492Zm0-17.656a1.494,1.494,0,0,0-1.492,1.492v2.9a1.494,1.494,0,0,0,1.492,1.492H1235.3a1.493,1.493,0,0,0,1.492-1.492v-2.9a1.493,1.493,0,0,0-1.492-1.492Zm0-18.31a1.494,1.494,0,0,0-1.492,1.492v2.9a1.494,1.494,0,0,0,1.492,1.492H1235.3a1.494,1.494,0,0,0,1.492-1.492v-2.9a1.494,1.494,0,0,0-1.492-1.492Z" transform="translate(-914.041 -239.622)" fill="#00a4b6"/>
      </g>
      <path id="search-alt-2-svgrepo-com" d="M37.837,37.827,43.808,23.4A20.4,20.4,0,1,1,23.4,3,20.4,20.4,0,0,1,43.808,23.4Z" transform="translate(5576.229 2682.361)" fill="#fff" stroke="#818181" stroke-linecap="round" stroke-linejoin="round" stroke-width="5"/>
    </g>
    <line id="Line_2" data-name="Line 2" y2="38" transform="translate(5613.435 2692.638) rotate(45)" fill="none" stroke="#818181" stroke-width="5"/>
  </g>
</svg>
